<svg width="32" height="32" viewBox="0 0 32 32" fill="none" xmlns="http://www.w3.org/2000/svg">
  <rect width="32" height="32" rx="7.11111" fill="#F48F56"/>
  <path fill-rule="evenodd" clip-rule="evenodd" d="M12 7.99996C12 5.79087 13.7909 3.99996 16 3.99996C18.2091 3.99996 20 5.79087 20 7.99996C20 9.80896 18.9678 11.4676 17.4356 12.8074L16 14.3385L14.5644 12.8063C13.0322 11.4676 12 9.80896 12 7.99996ZM21.2 17.319C19.671 15.918 16 12.651 16 12.651C15.443 12.207 15 11.593 15 10.999C15 9.542 16.394 8.167 17.851 8.167C18.551 8.167 19.197 8.521 19.611 9.061L21.2 10.8L22.789 9.061C23.203 8.521 23.849 8.167 24.549 8.167C26.006 8.167 27.4 9.542 27.4 10.999C27.4 11.593 26.957 12.207 26.4 12.651C26.4 12.651 22.729 15.918 21.2 17.319Z" fill="white"/>
</svg>
